<svg id="Capa_1" enable-background="new 0 0 512 512" height="512" viewBox="0 0 512 512" width="512" xmlns="http://www.w3.org/2000/svg"><g><path d="m510.752 180.008-61-140c-2.384-5.471-7.784-9.008-13.752-9.008h-360c-5.968 0-11.368 3.537-13.751 9.008l-61 140c-2.3 5.281-1.375 11.412 2.383 15.777l241 280c2.85 3.311 7 5.215 11.369 5.215s8.519-1.904 11.369-5.215l241-280c3.756-4.365 4.682-10.496 2.382-15.777zm-185.329 20.992-69.423 215.983-69.423-215.983zm-131.948-30 62.525-97.261 62.525 97.261zm90-110h125.05l-62.525 97.261zm-117.475 97.261-62.525-97.261h125.05zm53.058 241.824-171.356-199.085h107.364zm137.876-199.085h107.364l-171.355 199.085zm16.541-30 59.977-93.297 40.65 93.297zm-294.926-93.297 59.976 93.297h-100.627z"/></g></svg>